<?xml version="1.0" encoding="utf-8"?>
<svg xmlns="http://www.w3.org/2000/svg" fill="none" height="100%" overflow="visible" preserveAspectRatio="none" style="display: block;" viewBox="0 0 106 60" width="100%">
<g id="Company">
<g id="ucap_imagotipo_color 2">
<g id="Group 1">
<path d="M31.3349 29.1846C31.6232 29.3493 31.7218 29.7142 31.5555 29.9996L27.6233 36.7438C27.1913 37.4839 26.7119 38.139 25.6804 38.4003C24.5093 38.6984 23.3427 38.186 22.5656 37.7418C22.3823 37.637 22.1877 37.5178 21.9932 37.3829C21.6473 37.1429 21.3011 36.8533 21.0133 36.5034C20.7634 36.2004 20.5583 35.8527 20.4364 35.454C20.4292 35.4331 20.4232 35.4122 20.4175 35.3917C20.325 35.0668 20.2979 34.7664 20.3201 34.4835C20.3592 33.9614 20.5651 33.4971 20.8337 33.0357L22.8945 29.5006C22.9588 29.5215 23.0254 29.5394 23.0932 29.5569C23.9388 29.7719 24.831 29.7026 25.7963 29.3419L25.7997 29.3441L23.1383 33.9093C22.969 34.1988 22.7364 34.6661 22.896 35.164C22.9652 35.3791 23.1278 35.7033 23.5967 35.9716C23.9937 36.1982 24.3772 36.2425 24.6696 36.1781C25.1464 36.0629 25.4437 35.6533 25.6299 35.3343L29.4142 28.844C29.5967 28.5306 30.0013 28.4232 30.3177 28.6044L31.3342 29.1853L31.3349 29.1846Z" fill="var(--fill-0, #005CF9)" id="Vector"/>
<path d="M23.9195 41.3715V42.475C23.9195 42.8369 23.6233 43.1301 23.2579 43.1301H15.4531C14.5909 43.1301 13.7773 43.0463 13.0326 42.292C12.1862 41.4375 12.0511 40.1801 12.0511 39.2913C12.0511 39.0811 12.0583 38.8553 12.079 38.6209C12.1155 38.2042 12.196 37.7623 12.3582 37.3408C12.4982 36.9756 12.6992 36.6256 12.9874 36.3212C13.0014 36.3051 13.0168 36.2891 13.0322 36.2742C13.27 36.0331 13.5188 35.8598 13.7777 35.7372C14.2545 35.5099 14.7633 35.4536 15.3014 35.4536H19.4225C19.4372 35.5188 19.4541 35.5848 19.4729 35.6519C19.7081 36.4851 20.215 37.2156 21.0128 37.8629V37.8662H15.6898C15.3526 37.8662 14.8269 37.9009 14.4713 38.2862C14.3188 38.4532 14.1156 38.7547 14.1156 39.2913C14.1156 39.7445 14.2688 40.0959 14.4713 40.3143C14.8107 40.6657 15.3176 40.7164 15.6898 40.7164H23.2576C23.623 40.7164 23.9191 41.0097 23.9191 41.3715H23.9195Z" fill="var(--fill-0, #005CF9)" id="Vector_2"/>
<path d="M12.4817 35.4536C12.4321 35.4979 12.3824 35.5457 12.3335 35.5956C11.7216 36.2131 11.3366 37.0132 11.1695 38.0209L11.1661 38.0231L8.50479 33.458C8.33545 33.1684 8.04342 32.735 7.52824 32.6228C7.30584 32.5759 6.94043 32.552 6.47116 32.8203C6.0749 33.0469 5.84384 33.354 5.75427 33.6369C5.61654 34.1034 5.82577 34.5637 6.01168 34.8831L9.79519 41.3734C9.9777 41.6868 9.86932 42.0874 9.55322 42.2682L8.58833 42.8197C8.27185 43.0005 7.8673 42.8931 7.68479 42.5801L3.78236 35.8866C3.35035 35.1465 3.0173 34.4068 3.30519 33.392C3.62995 32.2386 4.66182 31.494 5.43854 31.0498C5.62181 30.9451 5.82352 30.8378 6.03915 30.7386C6.42149 30.562 6.84823 30.4096 7.29756 30.338C7.68667 30.275 8.09347 30.2728 8.50366 30.3678C8.52549 30.3727 8.54619 30.3775 8.56801 30.3831C8.89842 30.4662 9.17426 30.5933 9.41059 30.7532C9.8475 31.0476 10.1512 31.4568 10.4199 31.9177L12.4814 35.4536H12.4817Z" fill="var(--fill-0, #005CF9)" id="Vector_3"/>
<path d="M19.8542 19.7073C19.8542 19.9175 19.847 20.1434 19.8263 20.3778C19.7898 20.7944 19.7093 21.2364 19.5471 21.6579C19.4071 22.0231 19.2062 22.373 18.9179 22.6775C18.904 22.6935 18.8886 22.7095 18.8731 22.7244C18.6353 22.9663 18.3865 23.1396 18.1276 23.2622C17.6516 23.4895 17.1421 23.5458 16.6047 23.5458H12.4828C12.4682 23.4806 12.4512 23.4146 12.4324 23.3475C12.198 22.5143 11.6911 21.7838 10.8933 21.1358V21.1324H16.2156C16.5535 21.1324 17.0785 21.0985 17.4341 20.7132C17.5872 20.5455 17.7897 20.244 17.7897 19.7073C17.7897 19.2545 17.6365 18.9031 17.4341 18.6851C17.0954 18.3329 16.5877 18.283 16.2156 18.283H8.64778C8.28237 18.283 7.98621 17.9897 7.98621 17.6279V16.5236C7.98621 16.1618 8.28237 15.8685 8.64778 15.8685H16.4526C17.3155 15.8685 18.1284 15.9523 18.8731 16.7066C19.7195 17.5619 19.8546 18.8185 19.8546 19.7073H19.8542Z" fill="var(--fill-0, #005CF9)" id="Vector_4"/>
<path d="M11.5853 24.5166C11.5462 25.0387 11.3403 25.503 11.0716 25.9644L9.01015 29.4988C8.9458 29.4786 8.87994 29.4608 8.81221 29.4432C7.96586 29.2278 7.07436 29.2975 6.10911 29.6583L6.10572 29.656L8.76742 25.0909C8.93601 24.8013 9.16858 24.334 9.00977 23.8361C8.93978 23.6211 8.77721 23.2961 8.30831 23.0285C7.91205 22.802 7.52783 22.7569 7.23618 22.8221C6.75901 22.9372 6.46134 23.3468 6.27506 23.6658L2.4908 30.1562C2.30828 30.4696 1.90374 30.5769 1.58725 30.3958L0.62237 29.8442C0.305885 29.6635 0.197506 29.2629 0.380397 28.9495L4.28283 22.256C4.71409 21.5159 5.19427 20.86 6.22501 20.5995C7.39612 20.3006 8.56271 20.8138 9.34056 21.258C9.52382 21.3635 9.71838 21.482 9.91294 21.6176C10.2588 21.8569 10.605 22.1472 10.8929 22.4971C11.142 22.8001 11.3471 23.1474 11.469 23.5458C11.4762 23.5667 11.4822 23.5875 11.4878 23.608C11.5804 23.933 11.6075 24.2334 11.5853 24.5162V24.5166Z" fill="var(--fill-0, #005CF9)" id="Vector_5"/>
<path d="M28.5999 25.6074C28.2751 26.7608 27.2432 27.5054 26.4665 27.9496C26.2832 28.0543 26.0823 28.1616 25.8667 28.2608C25.4839 28.4374 25.0568 28.5895 24.6067 28.6606C24.2176 28.7236 23.8108 28.7259 23.4014 28.6316C23.3803 28.6267 23.3589 28.6219 23.3378 28.6163C23.0074 28.5332 22.7308 28.4061 22.4945 28.2455C22.0575 27.9511 21.7539 27.5419 21.4852 27.0809L19.4244 23.5465C19.4741 23.5015 19.5238 23.4537 19.5727 23.4038C20.1839 22.7863 20.5688 21.9862 20.7359 20.9785L20.7393 20.9763L23.401 25.5414C23.5696 25.8306 23.8624 26.2637 24.3768 26.3758C24.6 26.4235 24.9646 26.4466 25.4339 26.1783C25.8301 25.9517 26.0612 25.6447 26.1508 25.3618C26.2885 24.8952 26.0793 24.435 25.8934 24.1163L22.1099 17.626C21.9273 17.3126 22.0357 16.912 22.3522 16.7312L23.3175 16.1793C23.6339 15.9986 24.0385 16.1059 24.221 16.4189L28.1234 23.1124C28.5547 23.8521 28.8877 24.5915 28.6002 25.607L28.5999 25.6074Z" fill="var(--fill-0, #005CF9)" id="Vector_6"/>
</g>
<g id="Group">
<path d="M39.8853 20.3666C40.2507 20.3666 40.5469 20.6599 40.5469 21.0217V29.1764C40.5469 30.0906 40.5845 31.1534 41.2115 31.9572C41.6909 32.5796 42.5403 33.0171 43.5744 33.0171C44.6085 33.0171 45.4579 32.5796 45.9373 31.9572C46.5657 31.1534 46.6019 30.0906 46.6019 29.1764V21.0217C46.6019 20.6599 46.898 20.3666 47.2634 20.3666H49.559C49.9244 20.3666 50.2205 20.6599 50.2205 21.0217V29.2867C50.2205 31.2607 49.9996 32.9072 48.5595 34.3334C47.1569 35.7238 45.2358 36.2358 43.501 36.2358C41.9137 36.2358 39.9941 35.7596 38.59 34.3334C37.1499 32.9072 36.929 31.2607 36.929 29.2867V21.0217C36.929 20.6599 37.2251 20.3666 37.5905 20.3666H39.8861H39.8853Z" fill="var(--fill-0, #005CF9)" id="Vector_7"/>
<path d="M66.8456 23.7001C66.8456 24.2274 66.2484 24.5322 65.8088 24.2341C64.5252 23.3639 63.327 23.1798 62.4517 23.1798C60.753 23.1798 59.6827 23.8764 59.0181 24.5345C58.3536 25.1926 57.6894 26.3624 57.6894 28.0804C57.6894 29.7984 58.3897 31.0785 59.0919 31.772C59.9051 32.5401 61.0491 33.0164 62.3779 33.0164C63.4847 33.0164 64.7356 32.6873 65.8212 31.9394C66.254 31.6412 66.8456 31.9584 66.8456 32.4805V34.652C66.8456 34.8931 66.7131 35.1115 66.5005 35.2289C65.5992 35.7264 64.2305 36.2351 62.1194 36.2351C59.5352 36.2351 57.6894 35.5028 56.2116 33.9663C55.1037 32.8349 53.9973 31.004 53.9973 28.1903C53.9973 25.3767 55.2151 23.3643 56.3602 22.2299C57.578 21.024 59.5352 19.9611 62.5999 19.9611C63.6943 19.9611 64.9787 20.1195 66.4821 20.8693C66.7037 20.98 66.8452 21.2144 66.8452 21.4604V23.6997L66.8456 23.7001Z" fill="var(--fill-0, #005CF9)" id="Vector_8"/>
<path d="M82.359 20.3666H84.6545C85.0199 20.3666 85.3161 20.6599 85.3161 21.0217V35.104C85.3161 35.4659 85.0199 35.7592 84.6545 35.7592H82.359C81.9936 35.7592 81.6974 35.4659 81.6974 35.104V34.1515C80.1101 35.9794 78.1528 36.2355 77.045 36.2355C72.245 36.2355 69.5137 32.2844 69.5137 28.045C69.5137 23.0341 72.983 19.9619 77.0826 19.9619C78.2266 19.9619 80.2215 20.2566 81.6974 22.1561V21.0217C81.6974 20.6599 81.9936 20.3666 82.359 20.3666ZM73.2058 28.1162C73.2058 30.7867 74.9045 33.0167 77.5259 33.0167C79.8139 33.0167 81.9183 31.3703 81.9183 28.1549C81.9183 24.9396 79.8139 23.1798 77.5259 23.1798C74.9041 23.1798 73.2058 25.3741 73.2058 28.1162Z" fill="var(--fill-0, #005CF9)" id="Vector_9"/>
<path d="M92.862 44.1311H90.5665C90.2011 44.1311 89.9049 43.8378 89.9049 43.476V21.0214C89.9049 20.6595 90.2011 20.3662 90.5665 20.3662H92.862C93.2274 20.3662 93.5236 20.6595 93.5236 21.0214V22.0484C94.8524 20.4735 96.5887 19.9615 98.1384 19.9615C102.238 19.9615 105.709 23.0699 105.709 27.9705C105.709 33.1628 101.868 36.2355 98.176 36.2355C97.5021 36.2355 95.9915 36.0499 94.5845 34.987C94.1494 34.6583 93.5236 34.9594 93.5236 35.5013V43.4764C93.5236 43.8382 93.2274 44.1315 92.862 44.1315V44.1311ZM93.3023 28.1549C93.3023 31.3703 95.4067 33.0167 97.6962 33.0167C100.318 33.0167 102.015 30.7867 102.015 28.1162C102.015 25.4456 100.318 23.1798 97.6962 23.1798C95.4067 23.1798 93.3023 24.7905 93.3023 28.1549Z" fill="var(--fill-0, #005CF9)" id="Vector_10"/>
</g>
</g>
</g>
</svg>